<svg width="50" height="46" viewBox="0 0 50 46" fill="none" xmlns="http://www.w3.org/2000/svg">
<path d="M0.970215 16.8V0H4.85822V16.8H0.970215Z" fill="#89360C"/>
<path d="M8.84521 16.8V0H12.0612L21.9732 12.096H20.4132V0H24.2532V16.8H21.0612L11.1252 4.70401H12.6852V16.8H8.84521Z" fill="#89360C"/>
<path d="M33.1977 16.8L25.9497 0H30.1497L36.4857 14.88H34.0137L40.4457 0H44.3097L37.0377 16.8H33.1977Z" fill="#89360C"/>
<path d="M45.7124 16.8V0H49.6004V16.8H45.7124Z" fill="#89360C"/>
<path d="M5.37599 45.8V32.168H0V29H14.64V32.168H9.26399V45.8H5.37599Z" fill="#89360C"/>
<path d="M20.3079 35.768H28.3959V38.792H20.3079V35.768ZM20.5959 42.68H29.7399V45.8H16.7319V29H29.4279V32.12H20.5959V42.68Z" fill="#89360C"/>
<path d="M32.8335 45.8V29H40.4655C42.2895 29 43.8975 29.352 45.2895 30.056C46.6815 30.744 47.7695 31.712 48.5535 32.96C49.3375 34.208 49.7295 35.688 49.7295 37.4C49.7295 39.096 49.3375 40.576 48.5535 41.84C47.7695 43.088 46.6815 44.064 45.2895 44.768C43.8975 45.456 42.2895 45.8 40.4655 45.8H32.8335ZM36.7215 42.608H40.2735C41.3935 42.608 42.3615 42.4 43.1775 41.984C44.0095 41.552 44.6495 40.944 45.0975 40.16C45.5615 39.376 45.7935 38.456 45.7935 37.4C45.7935 36.328 45.5615 35.408 45.0975 34.64C44.6495 33.856 44.0095 33.256 43.1775 32.84C42.3615 32.408 41.3935 32.192 40.2735 32.192H36.7215V42.608Z" fill="#89360C"/>
</svg>
